<svg width="25" height="25" viewBox="0 0 25 25" fill="none" xmlns="http://www.w3.org/2000/svg">
<g clip-path="url(#clip0_105_23)">
<rect width="25" height="25" fill="#F5F6FA"/>
<path d="M18.1992 18.1256V19.7663V20.0001H17.9453H7.25541H7.00146V19.7663V5.23522V5.0014H7.25541H14.8923H14.9984L15.073 5.0701L18.1275 7.88251L18.2021 7.95121V8.04896V11.584C18.522 11.6342 18.809 11.7742 19.0285 11.9763C19.3039 12.2299 19.4761 12.5826 19.4761 12.971C19.4761 13.1969 19.4173 13.4122 19.3125 13.6038C19.225 13.7636 19.1045 13.9063 18.9596 14.0252V16.2524H19.9854C20.2652 16.2524 20.5206 16.3581 20.7042 16.5272C20.8878 16.6963 21.0026 16.9314 21.0026 17.189V17.8918V18.1256H20.7487H18.2021H18.1992ZM17.6899 11.5826V8.28146H14.8894C14.7488 8.28146 14.6355 8.17578 14.6355 8.04764V8.04103V5.46904H7.50791V19.5311H17.6899V18.1243H15.1448H14.8908V17.8904V17.1877C14.8908 16.9301 15.0056 16.6949 15.1892 16.5258C15.3729 16.3568 15.6283 16.2511 15.908 16.2511H16.9338V14.0239C16.7889 13.9063 16.6684 13.7636 16.5809 13.6025C16.4762 13.4109 16.4173 13.1969 16.4173 12.9697C16.4173 12.5813 16.5881 12.2299 16.865 11.975C17.0845 11.7729 17.37 11.6328 17.6899 11.5826ZM17.4446 16.2511H18.4474V13.9129V13.7953L18.5507 13.7253C18.6784 13.6381 18.7846 13.5232 18.8563 13.3924C18.9252 13.2669 18.9639 13.1229 18.9639 12.9697C18.9639 12.7108 18.8491 12.477 18.6655 12.3066C18.4819 12.1375 18.2265 12.0318 17.9453 12.0318C17.6641 12.0318 17.4101 12.1375 17.2251 12.3066C17.0414 12.4756 16.9267 12.7108 16.9267 12.9697C16.9267 13.1229 16.9654 13.2656 17.0343 13.3924C17.106 13.5232 17.2122 13.6381 17.3398 13.7253L17.4431 13.7953V13.9129V16.2511H17.4446ZM19.9825 16.72H15.9095C15.7703 16.72 15.6426 16.7729 15.5508 16.8574C15.459 16.942 15.4016 17.0595 15.4016 17.1877V17.6566H20.4919V17.1877C20.4919 17.0595 20.4345 16.942 20.3427 16.8574C20.2508 16.7729 20.1231 16.72 19.984 16.72H19.9825ZM12.5996 18.5945H16.6727V19.0635H12.5996V18.5945ZM8.52654 11.798H13.8722V12.2669H8.52654V11.798ZM8.52654 10.8601H16.6727V11.329H8.52654V10.8601ZM8.52654 9.92214H16.6727V10.3911H8.52654V9.92214ZM8.52654 8.98423H16.6727V9.45319H8.52654V8.98423ZM17.3298 7.8125L15.1448 5.80061V7.8125H17.3298Z" fill="black"/>
</g>
<defs>
<clipPath id="clip0_105_23">
<rect width="25" height="25" rx="5" fill="white"/>
</clipPath>
</defs>
</svg>
