<svg width="204" height="17" viewBox="0 0 204 17" fill="none" xmlns="http://www.w3.org/2000/svg">
<path d="M0.98 16L7.32 2H9.3L15.66 16H13.56L7.9 3.12H8.7L3.04 16H0.98ZM3.68 12.5L4.22 10.9H12.1L12.68 12.5H3.68ZM30.7284 5.3C31.5818 5.3 32.3351 5.46667 32.9884 5.8C33.6418 6.13333 34.1484 6.64 34.5084 7.32C34.8818 8 35.0684 8.86 35.0684 9.9V16H33.1484V10.12C33.1484 9.09333 32.9084 8.32 32.4284 7.8C31.9484 7.28 31.2751 7.02 30.4084 7.02C29.7684 7.02 29.2084 7.15333 28.7284 7.42C28.2484 7.68667 27.8751 8.08 27.6084 8.6C27.3551 9.12 27.2284 9.76667 27.2284 10.54V16H25.3084V10.12C25.3084 9.09333 25.0684 8.32 24.5884 7.8C24.1218 7.28 23.4484 7.02 22.5684 7.02C21.9418 7.02 21.3884 7.15333 20.9084 7.42C20.4284 7.68667 20.0551 8.08 19.7884 8.6C19.5218 9.12 19.3884 9.76667 19.3884 10.54V16H17.4684V5.4H19.3084V8.22L19.0084 7.5C19.3418 6.80667 19.8551 6.26667 20.5484 5.88C21.2418 5.49333 22.0484 5.3 22.9684 5.3C23.9818 5.3 24.8551 5.55333 25.5884 6.06C26.3218 6.55333 26.8018 7.30667 27.0284 8.32L26.2484 8C26.5684 7.18667 27.1284 6.53333 27.9284 6.04C28.7284 5.54667 29.6618 5.3 30.7284 5.3ZM43.3213 16.12C42.1879 16.12 41.1879 15.8867 40.3213 15.42C39.4679 14.9533 38.8013 14.3133 38.3213 13.5C37.8546 12.6867 37.6213 11.7533 37.6213 10.7C37.6213 9.64667 37.8479 8.71333 38.3013 7.9C38.7679 7.08667 39.4013 6.45333 40.2013 6C41.0146 5.53333 41.9279 5.3 42.9413 5.3C43.9679 5.3 44.8746 5.52667 45.6613 5.98C46.4479 6.43333 47.0613 7.07333 47.5013 7.9C47.9546 8.71333 48.1813 9.66667 48.1813 10.76C48.1813 10.84 48.1746 10.9333 48.1613 11.04C48.1613 11.1467 48.1546 11.2467 48.1413 11.34H39.1213V9.96H47.1413L46.3613 10.44C46.3746 9.76 46.2346 9.15333 45.9413 8.62C45.6479 8.08667 45.2413 7.67333 44.7213 7.38C44.2146 7.07333 43.6213 6.92 42.9413 6.92C42.2746 6.92 41.6813 7.07333 41.1613 7.38C40.6413 7.67333 40.2346 8.09333 39.9413 8.64C39.6479 9.17333 39.5013 9.78667 39.5013 10.48V10.8C39.5013 11.5067 39.6613 12.14 39.9813 12.7C40.3146 13.2467 40.7746 13.6733 41.3613 13.98C41.9479 14.2867 42.6213 14.44 43.3813 14.44C44.0079 14.44 44.5746 14.3333 45.0813 14.12C45.6013 13.9067 46.0546 13.5867 46.4413 13.16L47.5013 14.4C47.0213 14.96 46.4213 15.3867 45.7013 15.68C44.9946 15.9733 44.2013 16.12 43.3213 16.12ZM50.8473 16V5.4H52.6873V8.28L52.5073 7.56C52.8007 6.82667 53.294 6.26667 53.9873 5.88C54.6807 5.49333 55.534 5.3 56.5473 5.3V7.16C56.4673 7.14667 56.3873 7.14 56.3073 7.14C56.2407 7.14 56.174 7.14 56.1073 7.14C55.0807 7.14 54.2673 7.44667 53.6673 8.06C53.0673 8.67333 52.7673 9.56 52.7673 10.72V16H50.8473ZM58.9138 16V5.4H60.8338V16H58.9138ZM59.8738 3.36C59.5004 3.36 59.1871 3.24 58.9338 3C58.6938 2.76 58.5738 2.46667 58.5738 2.12C58.5738 1.76 58.6938 1.46 58.9338 1.22C59.1871 0.979999 59.5004 0.859999 59.8738 0.859999C60.2471 0.859999 60.5538 0.979999 60.7938 1.22C61.0471 1.44667 61.1738 1.73333 61.1738 2.08C61.1738 2.44 61.0538 2.74667 60.8138 3C60.5738 3.24 60.2604 3.36 59.8738 3.36ZM69.1197 16.12C68.0397 16.12 67.073 15.8867 66.2197 15.42C65.3797 14.9533 64.7197 14.3133 64.2397 13.5C63.7597 12.6867 63.5197 11.7533 63.5197 10.7C63.5197 9.64667 63.7597 8.71333 64.2397 7.9C64.7197 7.08667 65.3797 6.45333 66.2197 6C67.073 5.53333 68.0397 5.3 69.1197 5.3C70.0797 5.3 70.933 5.49333 71.6797 5.88C72.4397 6.25333 73.0264 6.81333 73.4397 7.56L71.9797 8.5C71.633 7.98 71.2064 7.6 70.6997 7.36C70.2064 7.10667 69.673 6.98 69.0997 6.98C68.4064 6.98 67.7864 7.13333 67.2397 7.44C66.693 7.74667 66.2597 8.18 65.9397 8.74C65.6197 9.28667 65.4597 9.94 65.4597 10.7C65.4597 11.46 65.6197 12.12 65.9397 12.68C66.2597 13.24 66.693 13.6733 67.2397 13.98C67.7864 14.2867 68.4064 14.44 69.0997 14.44C69.673 14.44 70.2064 14.32 70.6997 14.08C71.2064 13.8267 71.633 13.44 71.9797 12.92L73.4397 13.84C73.0264 14.5733 72.4397 15.14 71.6797 15.54C70.933 15.9267 70.0797 16.12 69.1197 16.12ZM82.5055 16V13.76L82.4055 13.34V9.52C82.4055 8.70667 82.1655 8.08 81.6855 7.64C81.2188 7.18667 80.5121 6.96 79.5655 6.96C78.9388 6.96 78.3255 7.06667 77.7255 7.28C77.1255 7.48 76.6188 7.75333 76.2055 8.1L75.4055 6.66C75.9521 6.22 76.6055 5.88667 77.3655 5.66C78.1388 5.42 78.9455 5.3 79.7855 5.3C81.2388 5.3 82.3588 5.65333 83.1455 6.36C83.9321 7.06667 84.3255 8.14667 84.3255 9.6V16H82.5055ZM79.0255 16.12C78.2388 16.12 77.5455 15.9867 76.9455 15.72C76.3588 15.4533 75.9055 15.0867 75.5855 14.62C75.2655 14.14 75.1055 13.6 75.1055 13C75.1055 12.4267 75.2388 11.9067 75.5055 11.44C75.7855 10.9733 76.2321 10.6 76.8455 10.32C77.4721 10.04 78.3121 9.9 79.3655 9.9H82.7255V11.28H79.4455C78.4855 11.28 77.8388 11.44 77.5055 11.76C77.1721 12.08 77.0055 12.4667 77.0055 12.92C77.0055 13.44 77.2121 13.86 77.6255 14.18C78.0388 14.4867 78.6121 14.64 79.3455 14.64C80.0655 14.64 80.6921 14.48 81.2255 14.16C81.7721 13.84 82.1655 13.3733 82.4055 12.76L82.7855 14.08C82.5321 14.7067 82.0855 15.2067 81.4455 15.58C80.8055 15.94 79.9988 16.12 79.0255 16.12ZM99.7897 16.16C98.723 16.16 97.7364 15.9867 96.8297 15.64C95.9364 15.28 95.1564 14.78 94.4897 14.14C93.8364 13.4867 93.323 12.7267 92.9497 11.86C92.5764 10.9933 92.3897 10.04 92.3897 9C92.3897 7.96 92.5764 7.00667 92.9497 6.14C93.323 5.27333 93.843 4.52 94.5097 3.88C95.1764 3.22667 95.9564 2.72667 96.8497 2.38C97.7564 2.02 98.743 1.84 99.8097 1.84C100.89 1.84 101.883 2.02667 102.79 2.4C103.71 2.76 104.49 3.3 105.13 4.02L103.83 5.28C103.296 4.72 102.696 4.30667 102.03 4.04C101.363 3.76 100.65 3.62 99.8897 3.62C99.103 3.62 98.3697 3.75333 97.6897 4.02C97.023 4.28667 96.443 4.66 95.9497 5.14C95.4564 5.62 95.0697 6.19333 94.7897 6.86C94.523 7.51333 94.3897 8.22667 94.3897 9C94.3897 9.77333 94.523 10.4933 94.7897 11.16C95.0697 11.8133 95.4564 12.38 95.9497 12.86C96.443 13.34 97.023 13.7133 97.6897 13.98C98.3697 14.2467 99.103 14.38 99.8897 14.38C100.65 14.38 101.363 14.2467 102.03 13.98C102.696 13.7 103.296 13.2733 103.83 12.7L105.13 13.96C104.49 14.68 103.71 15.2267 102.79 15.6C101.883 15.9733 100.883 16.16 99.7897 16.16ZM114.146 16V13.76L114.046 13.34V9.52C114.046 8.70667 113.806 8.08 113.326 7.64C112.859 7.18667 112.153 6.96 111.206 6.96C110.579 6.96 109.966 7.06667 109.366 7.28C108.766 7.48 108.259 7.75333 107.846 8.1L107.046 6.66C107.593 6.22 108.246 5.88667 109.006 5.66C109.779 5.42 110.586 5.3 111.426 5.3C112.879 5.3 113.999 5.65333 114.786 6.36C115.573 7.06667 115.966 8.14667 115.966 9.6V16H114.146ZM110.666 16.12C109.879 16.12 109.186 15.9867 108.586 15.72C107.999 15.4533 107.546 15.0867 107.226 14.62C106.906 14.14 106.746 13.6 106.746 13C106.746 12.4267 106.879 11.9067 107.146 11.44C107.426 10.9733 107.873 10.6 108.486 10.32C109.113 10.04 109.953 9.9 111.006 9.9H114.366V11.28H111.086C110.126 11.28 109.479 11.44 109.146 11.76C108.813 12.08 108.646 12.4667 108.646 12.92C108.646 13.44 108.853 13.86 109.266 14.18C109.679 14.4867 110.253 14.64 110.986 14.64C111.706 14.64 112.333 14.48 112.866 14.16C113.413 13.84 113.806 13.3733 114.046 12.76L114.426 14.08C114.173 14.7067 113.726 15.2067 113.086 15.58C112.446 15.94 111.639 16.12 110.666 16.12ZM119.519 16V5.4H121.359V8.28L121.179 7.56C121.473 6.82667 121.966 6.26667 122.659 5.88C123.353 5.49333 124.206 5.3 125.219 5.3V7.16C125.139 7.14667 125.059 7.14 124.979 7.14C124.913 7.14 124.846 7.14 124.779 7.14C123.753 7.14 122.939 7.44667 122.339 8.06C121.739 8.67333 121.439 9.56 121.439 10.72V16H119.519Z" fill="white"/>
<path d="M135.946 16V5.14H131.646V2H144.186V5.14H139.906V16H135.946ZM145.662 16V2H152.062C153.342 2 154.442 2.20667 155.362 2.62C156.295 3.03333 157.015 3.63333 157.522 4.42C158.028 5.19333 158.282 6.11333 158.282 7.18C158.282 8.23333 158.028 9.14667 157.522 9.92C157.015 10.68 156.295 11.2667 155.362 11.68C154.442 12.08 153.342 12.28 152.062 12.28H147.862L149.622 10.62V16H145.662ZM154.322 16L150.842 10.9H155.062L158.562 16H154.322ZM149.622 11.04L147.862 9.22H151.822C152.648 9.22 153.262 9.04 153.662 8.68C154.075 8.32 154.282 7.82 154.282 7.18C154.282 6.52667 154.075 6.02 153.662 5.66C153.262 5.3 152.648 5.12 151.822 5.12H147.862L149.622 3.3V11.04ZM158.786 16L164.966 2H168.866L175.066 16H170.946L166.106 3.94H167.666L162.826 16H158.786ZM162.166 13.28L163.186 10.36H170.026L171.046 13.28H162.166ZM176.189 16V2H179.449L187.169 11.32H185.629V2H189.509V16H186.249L178.529 6.68H180.069V16H176.189ZM197.222 16.28C196.076 16.28 194.969 16.14 193.902 15.86C192.849 15.5667 191.989 15.1933 191.322 14.74L192.622 11.82C193.249 12.22 193.969 12.5533 194.782 12.82C195.609 13.0733 196.429 13.2 197.242 13.2C197.789 13.2 198.229 13.1533 198.562 13.06C198.896 12.9533 199.136 12.82 199.282 12.66C199.442 12.4867 199.522 12.2867 199.522 12.06C199.522 11.74 199.376 11.4867 199.082 11.3C198.789 11.1133 198.409 10.96 197.942 10.84C197.476 10.72 196.956 10.6 196.382 10.48C195.822 10.36 195.256 10.2067 194.682 10.02C194.122 9.83333 193.609 9.59333 193.142 9.3C192.676 8.99333 192.296 8.6 192.002 8.12C191.709 7.62667 191.562 7.00667 191.562 6.26C191.562 5.42 191.789 4.66 192.242 3.98C192.709 3.3 193.402 2.75333 194.322 2.34C195.242 1.92667 196.389 1.72 197.762 1.72C198.682 1.72 199.582 1.82667 200.462 2.04C201.356 2.24 202.149 2.54 202.842 2.94L201.622 5.88C200.956 5.52 200.296 5.25333 199.642 5.08C198.989 4.89333 198.356 4.8 197.742 4.8C197.196 4.8 196.756 4.86 196.422 4.98C196.089 5.08667 195.849 5.23333 195.702 5.42C195.556 5.60667 195.482 5.82 195.482 6.06C195.482 6.36667 195.622 6.61333 195.902 6.8C196.196 6.97333 196.576 7.12 197.042 7.24C197.522 7.34667 198.042 7.46 198.602 7.58C199.176 7.7 199.742 7.85333 200.302 8.04C200.876 8.21333 201.396 8.45333 201.862 8.76C202.329 9.05333 202.702 9.44667 202.982 9.94C203.276 10.42 203.422 11.0267 203.422 11.76C203.422 12.5733 203.189 13.3267 202.722 14.02C202.269 14.7 201.582 15.2467 200.662 15.66C199.756 16.0733 198.609 16.28 197.222 16.28Z" fill="#FFF500"/>
</svg>
