<svg width="25" height="25" viewBox="0 0 25 25" fill="none" xmlns="http://www.w3.org/2000/svg">
<g clip-path="url(#clip0_105_20)">
<rect width="25" height="25" fill="#F5F6FA"/>
<path d="M19.5 19H6.5C5.673 19 5 18.327 5 17.5V9.5C5 8.673 5.673 8 6.5 8H8.6905L9.551 6.277C9.635 6.107 9.8085 6 9.998 6H16.003C16.1925 6 16.3655 6.107 16.4505 6.277L17.3095 8H19.5C20.327 8 21 8.673 21 9.5V17.5C21 18.327 20.327 19 19.5 19ZM20 9.5C20 9.2245 19.7755 9 19.5 9H17C16.975 9 16.9535 8.9895 16.9295 8.986C16.894 8.9805 16.8585 8.9775 16.8245 8.9645C16.794 8.953 16.7685 8.9345 16.741 8.917C16.714 8.9005 16.6865 8.8865 16.663 8.8645C16.6365 8.84 16.6175 8.81 16.597 8.78C16.583 8.76 16.5635 8.7455 16.5525 8.723L15.6935 7H10.3075L9.4475 8.723C9.424 8.7705 9.3925 8.8115 9.3575 8.8475C9.3505 8.855 9.342 8.8595 9.3345 8.8665C9.2985 8.899 9.259 8.9255 9.216 8.946C9.2015 8.9535 9.1875 8.9595 9.172 8.9655C9.117 8.9855 9.06 8.9995 9.001 9H9H6.5C6.2245 9 6 9.2245 6 9.5V17.5C6 17.7755 6.2245 18 6.5 18H19.5C19.7755 18 20 17.7755 20 17.5V9.5ZM13 16.5C11.07 16.5 9.5 14.93 9.5 13C9.5 11.07 11.07 9.5 13 9.5C14.93 9.5 16.5 11.07 16.5 13C16.5 14.93 14.93 16.5 13 16.5ZM13 10.5C11.6215 10.5 10.5 11.6215 10.5 13C10.5 14.3785 11.6215 15.5 13 15.5C14.3785 15.5 15.5 14.3785 15.5 13C15.5 11.6215 14.3785 10.5 13 10.5Z" fill="#373940"/>
</g>
<defs>
<clipPath id="clip0_105_20">
<rect width="25" height="25" rx="5" fill="white"/>
</clipPath>
</defs>
</svg>
