<svg width="25" height="25" viewBox="0 0 25 25" fill="none" xmlns="http://www.w3.org/2000/svg">
<g clip-path="url(#clip0_105_17)">
<rect width="25" height="25" fill="#F5F6FA"/>
<path d="M6 10.3333H19M10.3333 14.6667L11.7778 16.1111L14.6667 13.2222M8.88889 6V7.44444M16.1111 6V7.44444M8.31111 19H16.6889C17.4978 19 17.9024 19 18.2113 18.8426C18.4831 18.7041 18.7041 18.4831 18.8426 18.2113C19 17.9024 19 17.4978 19 16.6889V9.75556C19 8.94659 19 8.54211 18.8426 8.23313C18.7041 7.96133 18.4831 7.74036 18.2113 7.60188C17.9024 7.44444 17.4978 7.44444 16.6889 7.44444H8.31111C7.50215 7.44444 7.09766 7.44444 6.78868 7.60188C6.51689 7.74036 6.29592 7.96133 6.15744 8.23313C6 8.54211 6 8.94659 6 9.75556V16.6889C6 17.4978 6 17.9024 6.15744 18.2113C6.29592 18.4831 6.51689 18.7041 6.78868 18.8426C7.09766 19 7.50214 19 8.31111 19Z" stroke="#373940" stroke-linecap="round" stroke-linejoin="round"/>
</g>
<defs>
<clipPath id="clip0_105_17">
<rect width="25" height="25" rx="5" fill="white"/>
</clipPath>
</defs>
</svg>
