<svg width="21" height="21" viewBox="0 0 21 21" fill="none" xmlns="http://www.w3.org/2000/svg">
<path d="M20.3438 6.5625C20.3438 6.55692 20.3621 6.6232 20.3438 6.5625V6.5625ZM20.3438 9.84375V6.5625C20.3438 6.19992 20.0501 5.90625 19.6875 5.90625V1.64062C19.6875 1.4595 19.5405 1.3125 19.3594 1.3125H2.625C1.17534 1.3125 0 2.48784 0 3.9375C0 4.02609 0.00459375 4.1137 0.013125 4.2C0.00853125 4.22198 0 4.24233 0 4.26562V17.0625C0 18.5122 1.17534 19.6875 2.625 19.6875H19.6875C20.0501 19.6875 20.3438 19.3938 20.3438 19.0312V15.75C20.7063 15.75 21 15.4563 21 15.0938V10.5C21 10.1374 20.706 9.84375 20.3438 9.84375ZM2.625 1.96875H19.0312V5.90625H18.375V3.28125C18.375 2.91867 18.081 2.625 17.7188 2.625H2.625C2.26242 2.625 1.96875 2.91867 1.96875 3.28125V5.79173C1.20455 5.52136 0.65625 4.79423 0.65625 3.9375C0.65625 2.85009 1.53759 1.96875 2.625 1.96875ZM2.625 3.9375V3.28125H17.7188V3.9375H2.625ZM17.7188 4.59375V5.90625H2.625V4.59375H17.7188ZM19.6875 19.0312H2.625C1.53759 19.0312 0.65625 18.1499 0.65625 17.0625V5.66967C1.13728 6.216 1.8398 6.5625 2.625 6.5625H19.6875V9.84375H18.0469C16.4158 9.84375 15.0938 11.1658 15.0938 12.7969C15.0938 14.428 16.4158 15.75 18.0469 15.75H19.6875V19.0312ZM20.3438 15.0938H18.0469C16.7783 15.0938 15.75 14.0654 15.75 12.7969C15.75 11.5283 16.7783 10.5 18.0469 10.5H20.3438V15.0938ZM17.0625 12.7969C17.0625 13.3406 17.5032 13.7812 18.0469 13.7812C18.5906 13.7812 19.0312 13.3406 19.0312 12.7969C19.0312 12.2532 18.5906 11.8125 18.0469 11.8125C17.5032 11.8125 17.0625 12.2532 17.0625 12.7969ZM18.375 12.7969C18.375 12.978 18.228 13.125 18.0469 13.125C17.8657 13.125 17.7188 12.978 17.7188 12.7969C17.7188 12.6158 17.8657 12.4688 18.0469 12.4688C18.228 12.4688 18.375 12.6158 18.375 12.7969Z" fill="white"/>
</svg>
